PathFileType	4	(X/Y/Z)	C:/Users/opensim2020/Desktop/walking_exp_matlab/subject06_walking14_straight_04.trc																																																																																																																																					
DataRate	CameraRate	NumFrames	NumMarkers	Units	OrigDataRate	OrigDataStartFrame	OrigNumFrames																																																																																																																																	
100	100	4	45	mm	100	3087	227																																																																																																																																	
Frame#	Time	LFHD			RFHD			LBHD			RBHD			C7			T10			CLAV			STRN			RBAK			LSHO			LUPA			LELB			LFRM			LWRA			LWRB			LFIN			RSHO			RUPA			RELB			RFRM			RWRA			RWRB			RFIN			LASI			RASI			LPSI			RPSI			LTHI			LKNE			LTIB			LANK			LHEE			LTOE			RTHI			RKNE			RTIB			RANK			RHEE			RTOE			*39			*40			*41			*42			*43			*44		
		X1	Y1	Z1	X2	Y2	Z2	X3	Y3	Z3	X4	Y4	Z4	X5	Y5	Z5	X6	Y6	Z6	X7	Y7	Z7	X8	Y8	Z8	X9	Y9	Z9	X10	Y10	Z10	X11	Y11	Z11	X12	Y12	Z12	X13	Y13	Z13	X14	Y14	Z14	X15	Y15	Z15	X16	Y16	Z16	X17	Y17	Z17	X18	Y18	Z18	X19	Y19	Z19	X20	Y20	Z20	X21	Y21	Z21	X22	Y22	Z22	X23	Y23	Z23	X24	Y24	Z24	X25	Y25	Z25	X26	Y26	Z26	X27	Y27	Z27	X28	Y28	Z28	X29	Y29	Z29	X30	Y30	Z30	X31	Y31	Z31	X32	Y32	Z32	X33	Y33	Z33	X34	Y34	Z34	X35	Y35	Z35	X36	Y36	Z36	X37	Y37	Z37	X38	Y38	Z38	X39	Y39	Z39	X40	Y40	Z40	X41	Y41	Z41	X42	Y42	Z42	X43	Y43	Z43	X44	Y44	Z44	X45	Y45	Z45
																																																																																																																																								
171	1.7	567.03479	1663.84827	938.3241	578.25403	1656.9635	1069.46985	435.71426	1605.44702	951.00946	448.92776	1604.0614	1080.29736	444.18167	1449.73767	1013.46375	414.77203	1121.48877	1035.51233	555.39056	1376.05493	1008.71289	596.81842	1201.35596	1008.30902	378.547	1284.20496	1105.20935	486.0491	1397.2854	849.72302	462.92447	1191.52026	792.36786	447.68323	1080.31799	788.11298	454.12311	931.03827	762.49609	517.0575	811.97675	783.63635	447.50262	811.47272	768.98822	479.09402	727.61884	756.0293	520.35138	1416.41626	1171.91614	483.92682	1223.42163	1271.17004	498.94739	1102.90198	1285.15833	552.0285	996.5755	1293.22412	655.28723	894.51868	1243.30444	609.93237	873.01453	1287.49084	672.48456	817.46442	1280.50452	589.72821	966.35516	915.62402	597.99994	968.67236	1134.94104	431.05988	986.07965	946.83582	443.25958	992.38855	1115.69104	599.19849	658.5495	851.54749	656.17957	505.41327	874.78369	589.88599	260.6423	881.2276	564.94684	89.97935	918.03473	531.26434	75.37058	969.58527	700.31366	51.00062	898.62488	535.26245	631.13892	1180.47852	528.16815	505.16827	1157.77051	438.0574	250.62288	1155.15076	387.00247	71.00115	1109.41333	341.68933	49.32763	1067.95276	537.80762	30.26467	1100.87769	471.23065	1701.42786	1004.8031	NaN	NaN	NaN	NaN	NaN	NaN	NaN	NaN	NaN	NaN	NaN	NaN	NaN	NaN	NaN
172	1.71	576.34271	1662.68994	937.3277	587.75006	1655.96533	1068.56299	444.8996	1604.55249	950.23145	458.27441	1603.27014	1079.44702	453.38611	1448.81482	1012.815	423.66745	1120.63733	1035.13647	564.56641	1375.01746	1007.97064	605.91064	1200.37988	1007.89648	387.49811	1283.66492	1104.57629	495.52664	1396.2959	848.99072	468.89331	1191.03088	791.68427	451.05569	1080.18909	787.55682	455.1264	930.70746	761.84308	515.73328	810.66547	783.38953	446.36343	811.43518	768.01556	476.68964	727.00409	755.40869	529.44769	1415.68665	1171.0376	493.46292	1222.76636	1270.64722	509.62451	1102.69446	1285.1593	564.70093	997.51752	1292.86743	670.08618	898.19037	1242.02502	625.46906	875.54211	1286.42676	689.44006	821.51648	1279.04321	598.90698	965.72266	915.52466	606.47021	967.5672	1134.82361	440.20013	985.34033	946.11658	451.98865	991.44312	1115.05652	608.48663	657.99036	850.15088	666.24103	505.26108	873.35706	611.82874	257.37979	878.9986	595.93457	85.48186	915.71741	562.64471	69.33381	966.97528	732.92523	52.7333	897.48212	541.33289	630.14337	1179.85522	532.62921	504.06	1157.68091	440.24811	250.43054	1154.71289	387.24817	71.3668	1109.24695	341.89279	49.80581	1067.71057	537.85455	30.26141	1100.9541	480.64093	1700.35046	1003.91919	NaN	NaN	NaN	NaN	NaN	NaN	NaN	NaN	NaN	NaN	NaN	NaN	NaN	NaN	NaN
173	1.72	585.60852	1661.42456	936.28265	597.08228	1654.78894	1067.50146	454.13501	1603.40564	949.37067	467.62494	1602.24963	1078.59631	462.68427	1447.76819	1011.47131	432.37344	1119.75659	1034.44983	573.73486	1373.87451	1007.19574	614.92175	1199.24548	1007.52966	396.49634	1282.74304	1103.99597	504.78033	1395.18701	848.13361	474.80026	1190.61279	790.91364	454.80396	1080.1416	786.86932	456.07349	930.42786	761.17267	514.76575	809.46008	782.9303	445.45987	811.45166	767.1745	474.43658	726.43536	754.65302	538.4433	1414.8335	1170.23291	503.20407	1222.09363	1270.31763	520.24457	1102.34412	1285.09375	577.25342	998.38739	1292.42078	684.51459	901.65771	1240.72302	640.58942	877.9173	1285.33679	705.61536	825.33057	1277.29932	608.28687	965.06018	915.21063	614.95404	966.40637	1134.55103	449.3259	984.48303	945.27777	460.59293	990.49878	1114.35059	617.02625	657.09912	849.11469	676.02515	504.93878	871.97839	633.54535	254.43431	876.90033	626.83539	81.76434	913.30939	595.95288	62.6824	966.32715	765.7005	55.47522	895.99951	547.28717	629.19739	1179.53479	537.05182	503.05521	1157.73779	442.26138	250.27373	1154.39685	387.65515	71.66592	1109.02979	342.13947	50.38635	1067.43201	538.06018	30.1971	1101.08472	490.04001	1699.21216	1002.92438	NaN	NaN	NaN	NaN	NaN	NaN	NaN	NaN	NaN	NaN	NaN	NaN	NaN	NaN	NaN
174	1.73	594.84924	1660.09924	935.15442	606.50519	1653.53528	1066.36694	463.38632	1602.31018	948.49866	477.06412	1601.04333	1077.54187	471.94016	1446.4292	1011.03827	441.44287	1118.58472	1033.86035	583.06793	1372.64319	1006.31281	624.02972	1198.05737	1006.98077	405.59836	1281.88953	1103.13477	514.03876	1394.11279	847.31372	480.76682	1190.21545	790.05878	458.69867	1080.10718	786.18433	457.38596	930.50568	760.59637	514.11365	808.58258	782.30273	444.84985	811.60449	766.37354	472.83664	726.10406	754.09271	547.52734	1413.94543	1169.27136	513.27637	1221.41101	1269.9928	530.74744	1101.87866	1284.86353	589.51843	999.18695	1291.85217	698.66138	905.03699	1239.32678	655.5202	880.1322	1283.9231	721.70129	829.14508	1275.66907	617.36218	964.23389	915.01807	623.51013	965.22455	1134.15955	458.63782	983.38708	944.41705	469.28168	989.45605	1113.64392	625.25787	656.01385	848.10229	685.56641	504.46582	870.73138	654.59387	251.98502	874.89447	657.1579	78.90419	910.90466	627.04059	58.28877	963.69757	797.56921	58.81383	894.41412	553.23224	628.2475	1179.34985	541.50757	502.0806	1157.70374	444.30389	250.14188	1154.0697	387.92435	72.06374	1108.8678	342.2998	51.00716	1067.16357	537.73596	30.25403	1101.00928	499.39789	1698.00171	1001.87732	NaN	NaN	NaN	NaN	NaN	NaN	NaN	NaN	NaN	NaN	NaN	NaN	NaN	NaN	NaN
